<?xml version="1.0" encoding="utf-8"?>
<svg viewBox="0 0 138 32" fill="none" xmlns="http://www.w3.org/2000/svg">
  <defs>
    <clipPath id="clip0">
      <rect width="24" height="24" fill="white" transform="translate(3 4)"/>
    </clipPath>
    <linearGradient id="paint0_linear" x1="0" y1="0" x2="0" y2="32" gradientUnits="userSpaceOnUse" gradientTransform="matrix(0.3125, 0, 0, 0.3125, 0, 0)">
      <stop stop-color="#BBBBBB" stop-opacity="0.1"/>
      <stop offset="1" stop-opacity="0.1"/>
    </linearGradient>
    <linearGradient id="paint1_linear_9_45" x1="8.83553" y1="28.4626" x2="66.6589" y2="28.4626" gradientUnits="userSpaceOnUse" gradientTransform="matrix(0.360789, 0, 0, 0.341145, -197.926788, 0.852125)">
      <stop offset="0.0397" stop-color="#F9F9EC"/>
      <stop offset="0.4183" stop-color="#F9F9EC"/>
      <stop offset="0.4932" stop-color="#F3F1E2"/>
      <stop offset="0.6217" stop-color="#E4DDC6"/>
      <stop offset="0.7873" stop-color="#CCBC9A"/>
      <stop offset="0.7969" stop-color="#CABA97"/>
      <stop offset="1" stop-color="#BAA685"/>
    </linearGradient>
    <linearGradient id="paint2_linear_9_45" x1="20.269" y1="49.2016" x2="50.9735" y2="49.2016" gradientUnits="userSpaceOnUse" gradientTransform="matrix(0.360789, 0, 0, 0.341145, -197.926788, 0.852125)">
      <stop stop-color="#F9F9EC"/>
      <stop offset="0.0526" stop-color="#F9F9EC"/>
      <stop offset="0.3844" stop-color="#F9F9EC"/>
      <stop offset="0.5145" stop-color="#F5F4E5"/>
      <stop offset="0.7094" stop-color="#EAE5D0"/>
      <stop offset="0.9441" stop-color="#D9CCAF"/>
      <stop offset="0.9987" stop-color="#D4C6A6"/>
    </linearGradient>
    <linearGradient id="paint3_linear_9_45" x1="10.1621" y1="21.8836" x2="15.7323" y2="21.8836" gradientUnits="userSpaceOnUse" gradientTransform="matrix(0.360789, 0, 0, 0.341145, -197.926788, 0.852125)">
      <stop stop-color="#E8DBCA"/>
      <stop offset="1" stop-color="#F2ECDE"/>
    </linearGradient>
    <linearGradient id="paint4_linear_9_45" x1="18.402" y1="15.8332" x2="21.4598" y2="20.2955" gradientUnits="userSpaceOnUse" gradientTransform="matrix(0.360789, 0, 0, 0.341145, -197.926788, 0.852125)">
      <stop stop-color="#ECE1D1"/>
      <stop offset="0.4318" stop-color="#EEE6D9"/>
      <stop offset="1" stop-color="#EFE9DE"/>
    </linearGradient>
    <linearGradient id="paint5_linear_9_45" x1="26.8084" y1="19.2871" x2="32.4725" y2="19.2871" gradientUnits="userSpaceOnUse" gradientTransform="matrix(0.360789, 0, 0, 0.341145, -197.926788, 0.852125)">
      <stop stop-color="#ECE1D1"/>
      <stop offset="1" stop-color="#EDE4D5"/>
    </linearGradient>
    <linearGradient id="paint6_linear_9_45" x1="48.7244" y1="18.9074" x2="48.5777" y2="26.3957" gradientUnits="userSpaceOnUse" gradientTransform="matrix(0.360789, 0, 0, 0.341145, -197.926788, 0.852125)">
      <stop stop-color="#BAA68A"/>
      <stop offset="1" stop-color="#C7BAA0"/>
    </linearGradient>
    <linearGradient id="paint7_linear_9_45" x1="52.0623" y1="29.1551" x2="62.1189" y2="29.1551" gradientUnits="userSpaceOnUse" gradientTransform="matrix(0.360789, 0, 0, 0.341145, -197.926788, 0.852125)">
      <stop stop-color="#BDAE99"/>
      <stop offset="0.2551" stop-color="#BFB19C"/>
      <stop offset="1" stop-color="#C2B5A1"/>
    </linearGradient>
  </defs>
  <path d="M 41.562 0 L 9.688 0 L 9.688 10 L 41.562 10 C 42.425 10 43.125 9.301 43.125 8.438 L 43.125 1.562 C 43.125 0.699 42.425 0 41.562 0 Z" fill="#0F1418"/>
  <path d="M 1.806 0.5 L 9.21 0.5 L 9.21 9.5 L 1.806 9.5 C 1.084 9.5 0.5 8.916 0.5 8.194 L 0.5 1.806 C 0.5 1.084 1.084 0.5 1.806 0.5 Z" fill="white" stroke="#1C2125"/>
  <g clip-path="url(#clip0)" transform="matrix(0.3125, 0, 0, 0.3125, 0, 0)"/>
  <path d="M 18.198 6.445 C 17.958 6.562 17.645 6.62 17.26 6.62 C 16.756 6.62 16.361 6.472 16.072 6.175 C 15.784 5.879 15.639 5.485 15.639 4.992 C 15.639 4.468 15.802 4.042 16.125 3.715 C 16.45 3.388 16.872 3.225 17.388 3.225 C 17.708 3.225 17.978 3.265 18.198 3.346 L 18.198 4.058 C 17.978 3.927 17.728 3.862 17.448 3.862 C 17.139 3.862 16.891 3.958 16.702 4.152 C 16.512 4.345 16.418 4.608 16.418 4.94 C 16.418 5.257 16.507 5.511 16.685 5.699 C 16.865 5.887 17.105 5.982 17.406 5.982 C 17.695 5.982 17.958 5.912 18.198 5.771 L 18.198 6.445 Z M 19.955 6.62 C 19.565 6.62 19.257 6.511 19.033 6.292 C 18.81 6.073 18.698 5.775 18.698 5.4 C 18.698 5.012 18.815 4.709 19.046 4.492 C 19.278 4.272 19.592 4.162 19.988 4.162 C 20.376 4.162 20.682 4.272 20.903 4.492 C 21.125 4.709 21.235 4.998 21.235 5.358 C 21.235 5.748 21.121 6.055 20.892 6.282 C 20.665 6.507 20.352 6.62 19.955 6.62 Z M 19.974 4.715 C 19.803 4.715 19.67 4.775 19.575 4.892 C 19.481 5.009 19.434 5.175 19.434 5.391 C 19.434 5.841 19.615 6.065 19.978 6.065 C 20.325 6.065 20.498 5.835 20.498 5.372 C 20.498 4.935 20.323 4.715 19.974 4.715 Z M 24.054 6.562 L 23.331 6.562 L 23.331 6.24 L 23.322 6.24 C 23.156 6.493 22.915 6.62 22.595 6.62 C 22.303 6.62 22.067 6.516 21.888 6.311 C 21.71 6.103 21.621 5.815 21.621 5.444 C 21.621 5.055 21.718 4.745 21.915 4.512 C 22.113 4.278 22.371 4.162 22.689 4.162 C 22.992 4.162 23.202 4.27 23.322 4.486 L 23.331 4.486 L 23.331 3.093 L 24.054 3.093 L 24.054 6.562 Z M 23.345 5.423 L 23.345 5.246 C 23.345 5.095 23.3 4.967 23.212 4.866 C 23.123 4.765 23.008 4.715 22.865 4.715 C 22.705 4.715 22.581 4.778 22.491 4.905 C 22.401 5.031 22.355 5.203 22.355 5.423 C 22.355 5.628 22.398 5.787 22.485 5.898 C 22.573 6.01 22.694 6.065 22.848 6.065 C 22.995 6.065 23.113 6.007 23.205 5.889 C 23.298 5.772 23.345 5.616 23.345 5.423 Z M 26.825 5.596 L 25.295 5.596 C 25.32 5.937 25.535 6.107 25.938 6.107 C 26.196 6.107 26.423 6.045 26.618 5.925 L 26.618 6.445 C 26.402 6.562 26.12 6.62 25.775 6.62 C 25.395 6.62 25.102 6.515 24.893 6.305 C 24.684 6.095 24.579 5.802 24.579 5.427 C 24.579 5.038 24.692 4.73 24.918 4.502 C 25.144 4.275 25.422 4.162 25.752 4.162 C 26.093 4.162 26.356 4.263 26.543 4.465 C 26.731 4.668 26.825 4.945 26.825 5.292 L 26.825 5.596 Z M 26.154 5.152 C 26.154 4.817 26.018 4.648 25.746 4.648 C 25.631 4.648 25.53 4.697 25.445 4.794 C 25.361 4.889 25.309 5.009 25.292 5.152 L 26.154 5.152 Z M 29.817 6.445 C 29.578 6.562 29.265 6.62 28.878 6.62 C 28.375 6.62 27.979 6.472 27.692 6.175 C 27.402 5.879 27.258 5.485 27.258 4.992 C 27.258 4.468 27.42 4.042 27.744 3.715 C 28.068 3.388 28.49 3.225 29.007 3.225 C 29.328 3.225 29.598 3.265 29.817 3.346 L 29.817 4.058 C 29.598 3.927 29.347 3.862 29.066 3.862 C 28.758 3.862 28.509 3.958 28.321 4.152 C 28.132 4.345 28.036 4.608 28.036 4.94 C 28.036 5.257 28.125 5.511 28.305 5.699 C 28.483 5.887 28.723 5.982 29.025 5.982 C 29.314 5.982 29.578 5.912 29.817 5.771 L 29.817 6.445 Z M 32.707 6.562 L 31.985 6.562 L 31.985 5.231 C 31.985 4.887 31.862 4.715 31.611 4.715 C 31.482 4.715 31.378 4.764 31.299 4.859 C 31.22 4.955 31.181 5.078 31.181 5.225 L 31.181 6.562 L 30.457 6.562 L 30.457 3.093 L 31.181 3.093 L 31.181 4.566 L 31.189 4.566 C 31.366 4.296 31.607 4.162 31.911 4.162 C 32.442 4.162 32.707 4.482 32.707 5.123 L 32.707 6.562 Z M 35.444 5.596 L 33.915 5.596 C 33.938 5.937 34.154 6.107 34.558 6.107 C 34.815 6.107 35.042 6.045 35.238 5.925 L 35.238 6.445 C 35.022 6.562 34.739 6.62 34.393 6.62 C 34.015 6.62 33.722 6.515 33.512 6.305 C 33.303 6.095 33.198 5.802 33.198 5.427 C 33.198 5.038 33.312 4.73 33.537 4.502 C 33.763 4.275 34.041 4.162 34.37 4.162 C 34.712 4.162 34.975 4.263 35.162 4.465 C 35.349 4.668 35.444 4.945 35.444 5.292 L 35.444 5.596 Z M 34.773 5.152 C 34.773 4.817 34.637 4.648 34.365 4.648 C 34.249 4.648 34.148 4.697 34.064 4.794 C 33.979 4.889 33.928 5.009 33.91 5.152 L 34.773 5.152 Z M 37.458 3.646 C 37.365 3.61 37.276 3.592 37.192 3.592 C 36.959 3.592 36.844 3.718 36.844 3.969 L 36.844 4.218 L 37.378 4.218 L 37.378 4.752 L 36.844 4.752 L 36.844 6.562 L 36.122 6.562 L 36.122 4.752 L 35.728 4.752 L 35.728 4.218 L 36.122 4.218 L 36.122 3.928 C 36.122 3.662 36.209 3.445 36.383 3.282 C 36.557 3.119 36.794 3.038 37.093 3.038 C 37.239 3.038 37.362 3.053 37.458 3.084 L 37.458 3.646 Z" fill="white"/>
  <path d="M 41.562 0 L 1.562 0 C 0.699 0 0 0.699 0 1.562 L 0 8.438 C 0 9.301 0.699 10 1.562 10 L 41.562 10 C 42.425 10 43.125 9.301 43.125 8.438 L 43.125 1.562 C 43.125 0.699 42.425 0 41.562 0 Z" fill="url(#paint0_linear)"/>
  <g transform="matrix(0.27142900228500366, 0, 0, 0.27142900228500366, 55.10008621215819, 0.6571950912475586)">
    <path d="M -177.217 21.883 C -176.424 22.129 -175.771 22.477 -175.262 22.927 C -175.15 23.002 -175.096 23.088 -175.096 23.187 C -175.096 23.347 -175.222 23.5 -175.478 23.65 C -175.778 23.828 -176.225 24.142 -176.817 24.592 C -177.365 25.005 -177.809 25.305 -178.144 25.496 C -178.209 25.527 -178.274 25.544 -178.339 25.544 C -178.437 25.544 -178.524 25.51 -178.592 25.448 C -178.664 25.384 -178.7 25.309 -178.7 25.223 C -178.7 25.148 -178.671 25.083 -178.613 25.018 C -178.534 24.896 -178.354 24.759 -178.065 24.613 C -177.878 24.521 -177.643 24.37 -177.362 24.159 C -177.022 23.9 -176.788 23.729 -176.658 23.65 C -176.373 23.514 -176.229 23.419 -176.229 23.364 C -176.229 23.35 -176.232 23.34 -176.239 23.326 C -176.395 23.067 -176.655 22.873 -177.012 22.743 C -177.329 22.658 -177.654 22.569 -177.978 22.474 C -178.361 22.364 -178.646 22.208 -178.83 22.003 C -178.844 21.986 -178.848 21.962 -178.848 21.938 C -178.848 21.863 -178.801 21.781 -178.711 21.692 C -178.621 21.604 -178.53 21.559 -178.447 21.559 C -178.397 21.546 -178.343 21.542 -178.292 21.542 C -178.141 21.542 -177.957 21.587 -177.737 21.672 C -177.567 21.74 -177.394 21.808 -177.217 21.883 Z M -192.461 21.58 C -192.313 21.58 -192.19 21.617 -192.093 21.692 C -191.999 21.768 -191.952 21.853 -191.952 21.952 C -191.952 22.027 -191.981 22.092 -192.039 22.146 C -192.255 22.368 -192.695 22.607 -193.366 22.859 C -193.987 23.094 -194.402 23.364 -194.618 23.671 C -194.254 23.879 -193.774 24.108 -193.182 24.353 C -192.237 24.753 -191.75 24.961 -191.717 24.974 C -191.595 25.029 -191.533 25.117 -191.533 25.244 C -191.519 25.397 -191.584 25.527 -191.725 25.636 C -191.865 25.745 -192.028 25.797 -192.208 25.797 C -192.28 25.797 -192.349 25.783 -192.414 25.759 C -192.493 25.684 -192.598 25.598 -192.735 25.5 C -193.594 25.056 -194.514 24.633 -195.491 24.234 C -195.589 24.197 -195.686 24.162 -195.783 24.131 C -195.906 24.077 -195.979 23.995 -196 23.893 C -196 23.627 -195.877 23.381 -195.628 23.152 C -195.329 22.924 -194.835 22.665 -194.142 22.368 C -193.471 22.085 -192.987 21.822 -192.684 21.583 C -192.684 21.58 -192.612 21.58 -192.461 21.58 Z" fill="#5B4538" style="transform-origin: -184.938px -1.641px;"/>
    <path d="M -186.331 21.566 C -186.493 21.344 -186.645 21.188 -186.782 21.096 C -186.919 21.003 -187.078 20.959 -187.262 20.959 C -187.327 20.959 -187.384 20.969 -187.431 20.986 L -188.514 21.341 C -188.575 21.361 -188.647 21.368 -188.727 21.368 C -188.871 21.368 -188.986 21.338 -189.073 21.273 C -189.163 21.211 -189.271 21.085 -189.398 20.897 L -189.697 21.085 C -189.509 21.341 -189.347 21.512 -189.217 21.594 C -189.084 21.679 -188.918 21.72 -188.712 21.72 C -188.622 21.72 -188.532 21.706 -188.445 21.682 L -187.453 21.341 C -187.388 21.317 -187.316 21.303 -187.24 21.303 C -187.114 21.303 -187.009 21.327 -186.933 21.378 C -186.858 21.426 -186.749 21.539 -186.612 21.716 L -186.331 21.566 Z" fill="#5B4538" style="transform-origin: -184.938px -1.641px;"/>
    <path fill-rule="evenodd" clip-rule="evenodd" d="M -179.018 27.219 C -178.473 30.296 -182.452 30.593 -184.087 29.211 C -185.216 28.256 -184.899 26.929 -183.278 27.011 C -181.853 27.083 -181.013 28.822 -179.018 27.219 Z" fill="#5B4538" style="transform-origin: -184.938px -1.641px;"/>
    <path fill-rule="evenodd" clip-rule="evenodd" d="M -191.104 27.219 C -191.649 30.296 -187.67 30.593 -186.035 29.211 C -184.906 28.256 -185.223 26.929 -186.843 27.011 C -188.268 27.083 -189.109 28.822 -191.104 27.219 Z" fill="#5B4538" style="transform-origin: -184.938px -1.641px;"/>
    <path d="M -187.197 22.753 C -187.377 22.634 -187.601 22.573 -187.868 22.573 C -188.189 22.573 -188.449 22.665 -188.651 22.845 C -188.885 23.047 -188.976 23.333 -188.921 23.708 C -188.889 24.012 -188.774 24.278 -188.579 24.51 C -188.38 24.742 -188.142 24.858 -187.868 24.858 C -187.698 24.858 -187.521 24.814 -187.341 24.722 C -187.02 24.541 -186.861 24.193 -186.861 23.678 C -186.861 23.214 -186.973 22.907 -187.197 22.753 Z M -187.882 23.978 C -188.07 23.978 -188.225 23.835 -188.225 23.654 C -188.225 23.477 -188.073 23.33 -187.882 23.33 C -187.695 23.33 -187.54 23.473 -187.54 23.654 C -187.54 23.835 -187.695 23.978 -187.882 23.978 Z" fill="#5B4538" style="transform-origin: -184.938px -1.641px;"/>
    <path d="M -184.816 26.748 C -184.714 26.748 -184.617 26.731 -184.527 26.697 C -184.437 26.663 -184.354 26.622 -184.278 26.567 C -184.202 26.513 -184.134 26.451 -184.072 26.386 C -184.011 26.318 -183.957 26.253 -183.913 26.182 C -183.867 26.114 -183.83 26.049 -183.802 25.984 C -183.773 25.923 -183.751 25.872 -183.74 25.827 C -183.744 25.82 -183.748 25.81 -183.755 25.797 C -183.762 25.786 -183.769 25.776 -183.773 25.766 C -183.78 25.759 -183.787 25.755 -183.791 25.755 C -183.877 25.905 -183.971 26.028 -184.079 26.124 C -184.188 26.22 -184.307 26.288 -184.433 26.332 C -184.563 26.376 -184.704 26.397 -184.852 26.397 C -184.981 26.397 -185.097 26.38 -185.198 26.349 C -185.302 26.318 -185.393 26.271 -185.476 26.213 C -185.559 26.151 -185.631 26.079 -185.699 25.998 C -185.765 25.916 -185.826 25.82 -185.88 25.718 C -185.884 25.718 -185.887 25.721 -185.894 25.728 C -185.901 25.735 -185.909 25.745 -185.912 25.755 C -185.92 25.766 -185.92 25.772 -185.923 25.779 C -185.873 25.912 -185.811 26.035 -185.735 26.155 C -185.663 26.271 -185.58 26.373 -185.487 26.462 C -185.393 26.55 -185.292 26.622 -185.177 26.673 C -185.068 26.717 -184.945 26.745 -184.816 26.748 Z" fill="#5B4538" style="transform-origin: -184.938px -1.641px;"/>
    <path d="M -181.644 22.733 C -181.825 22.613 -182.048 22.552 -182.315 22.552 C -182.636 22.552 -182.896 22.644 -183.098 22.825 C -183.333 23.026 -183.423 23.316 -183.369 23.688 C -183.336 23.992 -183.221 24.258 -183.026 24.49 C -182.828 24.722 -182.59 24.838 -182.315 24.838 C -182.146 24.838 -181.969 24.793 -181.788 24.701 C -181.467 24.521 -181.309 24.173 -181.309 23.657 C -181.305 23.19 -181.417 22.883 -181.644 22.733 Z M -182.431 24.016 C -182.618 24.016 -182.773 23.869 -182.773 23.692 C -182.773 23.514 -182.622 23.368 -182.431 23.368 C -182.243 23.368 -182.088 23.511 -182.088 23.692 C -182.088 23.872 -182.243 24.016 -182.431 24.016 Z" fill="#5B4538" style="transform-origin: -184.938px -1.641px;"/>
    <path d="M -179.292 19.062 C -178.736 18.834 -178.451 17.06 -178.076 15.409 C -176.723 12.485 -173.703 10.332 -173.884 7.613 C -176.362 3.025 -179.833 2.861 -181.32 2.496 C -183.246 2.158 -185.169 1.91 -187.092 2.172 C -188.46 2.363 -190.231 3.608 -191.869 3.714 C -193.431 4.202 -193.821 4.85 -194.257 5.42 C -194.745 6.423 -194.856 7.422 -194.618 8.425 C -194.019 10.227 -193.099 11.864 -192.814 13.825 C -192.183 14.88 -192.14 16.872 -190.696 18.209 C -186.28 16.22 -182.673 17.762 -179.292 19.062 Z" fill="url(#paint1_linear_9_45)" style="transform-origin: -184.938px -1.641px;"/>
    <path d="M -179.346 19.083 L -179.761 18.923 C -183.077 17.643 -186.508 16.316 -190.736 18.223 L -190.761 18.233 L -190.779 18.216 C -191.721 17.343 -192.067 16.214 -192.371 15.214 C -192.533 14.689 -192.684 14.194 -192.904 13.822 L -192.908 13.809 C -193.099 12.505 -193.575 11.321 -194.037 10.179 C -194.268 9.606 -194.51 9.012 -194.709 8.411 C -194.95 7.395 -194.828 6.375 -194.348 5.382 C -194.312 5.334 -194.279 5.29 -194.246 5.246 C -193.846 4.714 -193.395 4.11 -191.938 3.656 C -191.036 3.595 -190.105 3.196 -189.206 2.81 C -188.47 2.493 -187.774 2.196 -187.154 2.111 C -185.324 1.861 -183.52 2.06 -181.374 2.435 C -181.2 2.476 -181.009 2.517 -180.789 2.561 C -179.155 2.888 -176.113 3.492 -173.912 7.573 L -173.909 7.586 C -173.797 9.278 -174.912 10.752 -176.095 12.311 C -176.828 13.28 -177.589 14.283 -178.105 15.398 C -178.163 15.658 -178.22 15.927 -178.278 16.193 C -178.588 17.629 -178.855 18.871 -179.342 19.073 L -179.346 19.083 Z M -186.432 17.196 C -184.029 17.196 -181.857 18.035 -179.728 18.857 L -179.346 19.004 C -178.906 18.799 -178.632 17.527 -178.339 16.183 C -178.282 15.917 -178.224 15.647 -178.163 15.381 C -177.639 14.252 -176.878 13.246 -176.142 12.274 C -174.969 10.725 -173.862 9.265 -173.97 7.6 C -176.16 3.56 -179.061 2.984 -180.796 2.636 C -181.02 2.592 -181.211 2.554 -181.384 2.51 C -183.52 2.138 -185.321 1.94 -187.139 2.189 C -187.749 2.274 -188.438 2.571 -189.17 2.882 C -190.076 3.271 -191.01 3.67 -191.919 3.731 C -193.345 4.178 -193.788 4.768 -194.182 5.294 C -194.214 5.338 -194.246 5.379 -194.279 5.423 C -194.752 6.395 -194.871 7.402 -194.633 8.398 C -194.434 8.995 -194.196 9.585 -193.961 10.158 C -193.5 11.301 -193.02 12.485 -192.829 13.795 C -192.605 14.17 -192.454 14.668 -192.291 15.194 C -191.992 16.176 -191.649 17.288 -190.736 18.148 C -189.21 17.462 -187.785 17.196 -186.432 17.196 Z" fill="#C8BCA8" style="transform-origin: -184.938px -1.641px;"/>
    <path fill-rule="evenodd" clip-rule="evenodd" d="M -190.57 19.369 C -188.979 18.571 -184.996 16.596 -179.664 20.058 C -179.512 19.246 -179.498 18.435 -179.617 17.623 C -179.768 15.702 -187.727 13.351 -190.613 17.582 L -190.57 19.369 Z" fill="url(#paint2_linear_9_45)" style="transform-origin: -184.938px -1.641px;"/>
    <path d="M -179.649 20.085 L -179.671 20.072 C -181.955 18.588 -184.256 17.937 -186.518 18.131 C -188.387 18.291 -189.802 19.001 -190.563 19.383 L -190.585 19.393 L -190.585 19.369 L -190.628 17.578 L -190.624 17.575 C -189.845 16.435 -188.665 15.692 -187.11 15.371 C -185.837 15.105 -184.35 15.149 -182.925 15.494 C -181.027 15.951 -179.66 16.828 -179.599 17.623 C -179.48 18.431 -179.494 19.253 -179.645 20.062 L -179.649 20.085 Z M -185.735 18.066 C -183.73 18.066 -181.695 18.724 -179.674 20.035 C -179.53 19.236 -179.515 18.424 -179.634 17.626 C -179.696 16.855 -181.085 15.968 -182.939 15.521 C -184.357 15.18 -185.84 15.135 -187.11 15.398 C -188.654 15.719 -189.831 16.456 -190.602 17.585 L -190.559 19.342 C -189.791 18.956 -188.384 18.257 -186.526 18.097 C -186.259 18.076 -185.995 18.066 -185.735 18.066 Z" fill="#C8BCA8" style="transform-origin: -184.938px -1.641px;"/>
    <path fill-rule="evenodd" clip-rule="evenodd" d="M -192.811 5.116 C -193.056 6.286 -191.959 9.981 -192.327 11.919 C -192.515 10.902 -193.2 8.886 -193.171 7.75 C -193.503 7.068 -193.835 6.242 -194.199 5.925 C -194.528 5.642 -193.446 3.953 -192.811 5.116 Z" fill="url(#paint3_linear_9_45)" style="transform-origin: -184.938px -1.641px;"/>
    <path d="M -190.31 17.008 C -190.314 17.005 -190.314 17.005 -190.314 17.002 C -191.757 15.405 -192.352 12.655 -192.854 10.339 C -193.251 8.5 -193.59 6.931 -194.246 6.437 L -194.25 6.433 C -194.333 6.331 -194.38 6.211 -194.398 6.085 C -194.43 5.867 -194.373 5.628 -194.254 5.406 C -194.138 5.184 -193.961 4.987 -193.752 4.85 C -193.608 4.755 -193.446 4.693 -193.28 4.672 L -193.276 4.703 C -193.438 4.72 -193.594 4.785 -193.734 4.874 C -193.889 5.075 -194.005 5.205 -194.12 5.42 C -194.441 6.027 -193.774 5.996 -193.511 6.327 C -192.847 6.832 -192.793 8.487 -192.392 10.332 C -191.891 12.645 -191.728 15.391 -190.292 16.981 C -190.289 16.984 -190.289 16.984 -190.289 16.988 L -190.31 17.008 Z" fill="#A99675" style="transform-origin: -184.938px -1.641px;"/>
    <path fill-rule="evenodd" clip-rule="evenodd" d="M -190.364 4.639 C -190.61 5.809 -189.982 8.493 -190.346 10.434 C -190.534 9.418 -191.22 7.402 -191.19 6.266 C -191.523 5.583 -191.919 4.806 -192.154 4.403 C -192.367 4.041 -191.27 3.554 -190.364 4.639 Z" fill="url(#paint4_linear_9_45)" style="transform-origin: -184.938px -1.641px;"/>
    <path d="M -190.844 4.229 C -191.158 4.028 -191.284 4.038 -191.555 4.072 C -191.667 4.086 -191.761 4.12 -191.833 4.168 C -191.905 4.215 -191.952 4.284 -191.966 4.365 C -191.981 4.489 -192.067 4.509 -191.948 4.734 C -191.148 5.761 -190.538 7.463 -190.368 9.275 C -190.155 11.571 -190.437 14.116 -188.827 15.917 L -188.853 15.937 C -190.469 14.126 -190.707 11.577 -190.92 9.278 C -191.09 7.47 -191.245 5.815 -192.039 4.795 C -192.205 4.584 -192.255 4.41 -192.23 4.274 C -192.212 4.181 -192.161 4.11 -192.082 4.055 C -192.006 4.001 -191.905 3.966 -191.786 3.953 C -191.508 3.919 -191.144 3.997 -190.823 4.205 L -190.844 4.229 Z" fill="#A99675" style="transform-origin: -184.938px -1.641px;"/>
    <path d="M -186.428 2.585 C -185.685 3.759 -187.052 9.04 -187.294 12.359 C -187.316 12.638 -189.935 1.405 -186.428 2.585 Z" fill="url(#paint5_linear_9_45)" style="transform-origin: -184.938px -1.641px;"/>
    <path d="M -186.742 15.289 C -187.59 13.201 -188.499 9.578 -188.64 6.719 C -188.694 5.594 -188.633 4.584 -188.398 3.834 C -188.164 3.079 -187.756 2.588 -187.124 2.499 C -186.919 2.469 -186.688 2.486 -186.432 2.547 L -186.443 2.578 C -186.695 2.517 -186.93 2.568 -187.132 2.598 C -187.659 2.711 -187.597 3.025 -187.943 3.731 C -188.175 4.478 -188.305 5.403 -188.2 6.529 C -187.749 9.316 -187.197 13.116 -186.717 15.279 L -186.742 15.289 Z" fill="#B5A584" style="transform-origin: -184.938px -1.641px;"/>
    <path d="M -184.274 15.108 C -184.307 14.883 -184.339 14.651 -184.375 14.416 C -184.927 10.656 -185.602 6.058 -183.235 2.752 L -183.206 2.769 C -184.177 5.215 -184.307 9.872 -184.422 11.376 C -184.473 12.024 -184.393 13.416 -184.339 14.409 C -184.307 14.641 -184.271 14.873 -184.238 15.102 L -184.274 15.108 Z" fill="#CABB9C" style="transform-origin: -184.938px -1.641px;"/>
    <path d="M -181.705 15.593 C -181.622 13.645 -181.403 11.366 -181.204 9.391 C -180.706 6.9 -179.368 5.723 -179.018 3.206 L -179.01 3.175 C -180.288 5.144 -180.998 7.272 -181.37 9.397 C -181.738 11.523 -181.767 13.645 -181.669 15.593 L -181.705 15.593 Z" fill="url(#paint6_linear_9_45)" style="transform-origin: -184.938px -1.641px;"/>
    <path d="M -175.515 6.163 C -176.578 9.288 -177.856 12.342 -179.144 15.433 C -179.108 11.342 -176.788 6.416 -175.515 6.163 Z" fill="url(#paint7_linear_9_45)" style="transform-origin: -184.938px -1.641px;"/>
    <path d="M -179.753 16.811 C -179.191 16.254 -179.151 15.402 -179.101 14.412 C -179.057 13.498 -179.007 12.468 -178.534 11.448 C -178.524 11.41 -178.502 11.345 -178.477 11.257 C -178.163 10.223 -176.907 6.068 -175.442 6.143 L -175.446 6.174 C -176.597 6.133 -178.058 10.244 -178.404 11.27 C -178.43 11.356 -178.437 11.41 -178.451 11.451 L -178.451 11.455 C -178.863 12.468 -178.888 13.502 -179.025 14.412 C -179.072 15.405 -179.162 16.265 -179.732 16.828 L -179.753 16.811 Z" fill="#A99675" style="transform-origin: -184.938px -1.641px;"/>
  </g>
</svg>